<mxfile host="65bd71144e" modified="2020-12-02T07:29:20.201Z" agent="5.0 (Macintosh; Intel Mac OS X 10_15_7) AppleWebKit/537.36 (KHTML, like Gecko) Code/1.51.1 Chrome/83.0.4103.122 Electron/9.3.3 Safari/537.36" etag="5YuIrBEpbUOMNwkHPAFw" version="13.6.5">
    <diagram id="7buT60S32vvg24OTwkd-" name="Page-1">
        <mxGraphModel dx="1345" dy="619" grid="1" gridSize="10" guides="1" tooltips="1" connect="1" arrows="1" fold="1" page="1" pageScale="1" pageWidth="827" pageHeight="1169" math="0" shadow="0">
            <root>
                <mxCell id="0"/>
                <mxCell id="1" style="locked=1;" parent="0"/>
                <mxCell id="2" value="" style="rounded=0;whiteSpace=wrap;html=1;" parent="1" vertex="1">
                    <mxGeometry x="90" y="100" width="710" height="510" as="geometry"/>
                </mxCell>
                <mxCell id="4" value="network" style="locked=1;" parent="0"/>
                <mxCell id="6" value="" style="shape=image;verticalLabelPosition=bottom;verticalAlign=top;imageAspect=1;aspect=fixed;image=data:image/svg+xml,PHN2ZyB4bWxucz0iaHR0cDovL3d3dy53My5vcmcvMjAwMC9zdmciIHZpZXdCb3g9IjAgMCAxOCAxOCI+PGRlZnM+PGxpbmVhckdyYWRpZW50IGlkPSJhIiB4MT0iMTAuNyIgeTE9IjExLjMyIiB4Mj0iMTAuNyIgeTI9IjkiIGdyYWRpZW50VHJhbnNmb3JtPSJyb3RhdGUoLS4wOCAtODIyLjYxMiAtMTQ1NC40NTUpIiBncmFkaWVudFVuaXRzPSJ1c2VyU3BhY2VPblVzZSI+PHN0b3Agb2Zmc2V0PSIwIiBzdG9wLWNvbG9yPSIjMDA3OGQ0Ii8+PHN0b3Agb2Zmc2V0PSIuODIiIHN0b3AtY29sb3I9IiM1ZWEwZWYiLz48L2xpbmVhckdyYWRpZW50PjxsaW5lYXJHcmFkaWVudCBpZD0iYiIgeDE9IjYuOTkiIHkxPSIxMS4zMiIgeDI9IjciIHkyPSI5IiBncmFkaWVudFVuaXRzPSJ1c2VyU3BhY2VPblVzZSI+PHN0b3Agb2Zmc2V0PSIwIiBzdG9wLWNvbG9yPSIjMDA3OGQ0Ii8+PHN0b3Agb2Zmc2V0PSIuODIiIHN0b3AtY29sb3I9IiM1ZWEwZWYiLz48L2xpbmVhckdyYWRpZW50PjxsaW5lYXJHcmFkaWVudCBpZD0iYyIgeDE9IjMuMjkiIHkxPSIxMS4zMiIgeDI9IjMuMyIgeTI9IjkiIGdyYWRpZW50VW5pdHM9InVzZXJTcGFjZU9uVXNlIj48c3RvcCBvZmZzZXQ9IjAiIHN0b3AtY29sb3I9IiMwMDc4ZDQiLz48c3RvcCBvZmZzZXQ9Ii44MiIgc3RvcC1jb2xvcj0iIzVlYTBlZiIvPjwvbGluZWFyR3JhZGllbnQ+PC9kZWZzPjxjaXJjbGUgY3g9IjEyLjc0IiBjeT0iOC45OSIgcj0iMS4xNiIgZmlsbD0idXJsKCNhKSIvPjxjaXJjbGUgY3g9IjkuMDQiIGN5PSI5IiByPSIxLjE2IiBmaWxsPSJ1cmwoI2IpIi8+PGNpcmNsZSBjeD0iNS4zNCIgY3k9IjkiIHI9IjEuMTYiIGZpbGw9InVybCgjYykiLz48cGF0aCBkPSJNNi4xODIgMTMuNjM4bC0uNjY0LjY2NWEuMy4zIDAgMDEtLjQyNCAwTC4xOCA5LjQwNGEuNi42IDAgMDEtLjAwMS0uODQ4bC42NjMtLjY2NiA1LjM0IDUuMzI0YS4zLjMgMCAwMTAgLjQyNXoiIGZpbGw9IiM1MGU2ZmYiLz48cGF0aCBkPSJNNS40MTggMy43MDhsLjY2Ni42NjRhLjMuMyAwIDAxMCAuNDI0TC44MzggMTAuMDU3bC0uNjY2LS42NjNhLjYuNiAwIDAxLS4wMDEtLjg0OUw0Ljk5NCAzLjcxYS4zLjMgMCAwMS40MjQgMHoiIGZpbGw9IiMxNDkwZGYiLz48cGF0aCBkPSJNMTcuMTU3IDcuODhsLjY2My42NjZhLjYuNiAwIDAxMCAuODQ4bC00LjkxNSA0LjlhLjMuMyAwIDAxLS40MjQgMGwtLjY2NC0uNjY2YS4zLjMgMCAwMTAtLjQyNGw1LjM0LTUuMzI0eiIgZmlsbD0iIzUwZTZmZiIvPjxwYXRoIGQ9Ik0xNy44MTggOS4zODdsLS42NjUuNjY0LTUuMjQ3LTUuMjYxYS4zLjMgMCAwMTAtLjQyNWwuNjc0LS42N2EuMy4zIDAgMDEuNDI0IDBsNC44MjMgNC44MzZhLjYuNiAwIDAxLS4wMDIuODQ5eiIgZmlsbD0iIzE0OTBkZiIvPjwvc3ZnPg==;" parent="4" vertex="1">
                    <mxGeometry x="210" y="170" width="40" height="40" as="geometry"/>
                </mxCell>
                <mxCell id="7" value="" style="rounded=0;whiteSpace=wrap;html=1;dashed=1;" parent="4" vertex="1">
                    <mxGeometry x="250" y="210" width="320" height="320" as="geometry"/>
                </mxCell>
                <mxCell id="8" value="Untitled Layer" parent="0"/>
                <mxCell id="10" value="" style="whiteSpace=wrap;html=1;aspect=fixed;dashed=1;" parent="8" vertex="1">
                    <mxGeometry x="282.5" y="328" width="132" height="132" as="geometry"/>
                </mxCell>
                <mxCell id="9" value="" style="shape=image;verticalLabelPosition=bottom;labelBackgroundColor=#ffffff;verticalAlign=top;aspect=fixed;imageAspect=0;image=data:image/png,iVBORw0KGgoAAAANSUhEUgAAAggAAACwCAYAAABq+pZSAAAgAElEQVR4Xu1dB5RV1bn+Zphh6AydoRcBUVHsQREjooINS55GYwsmlhf12aJG3zNvGdM0apRYXkSNRrErKpaoKEZUFEGFUaRK70OZwvSZt75975k599y9zzm3nHvnzv33WrNgZs7Z5dt77v/tv+Y0NjY2QpogIAgIAoKAICAICAI2BHKEIMh5EAQEAUFAEBAEBAEnAkIQ5EwIAoKAICAICAKCQBQCQhDkUAgCgoAgIAgIAoKAEAQ5A4KAICAICAKCgCDgjYBoELwxkicEAUFAEBAEBIGsQ0AIQtZtuSxYEBAEBAFBQBDwRkAIgjdG8oQgIAgIAoKAIJB1CAhByLotlwULAoKAICAICALeCAhB8MZInhAEBAFBQBAQBLIOASEIWbflsmBBQBAQBAQBQcAbASEI3hjJE4KAICAICAKCQNYhIAQh67ZcFiwICAKCgCAgCHgjIATBGyN5QhAQBAQBQUAQyDoEhCBk3ZbLggUBQUAQEAQEAW8EhCB4YyRPCAKCgCAgCAgCWYeAEISs23JZsCAgCAgCgoAg4I2AEARvjOQJQUAQEAQEAUEg6xAQgpB1Wy4LFgQEAUFAEBAEvBEQguCNkTwhCAgCgoAgIAhkHQJCELJuy2XBgoAgIAgIAoKANwJCELwxkicEAUFAEBAEBIGsQ0AIQtZtuSxYEBAEBAFBQBDwRkAIgjdG8oQgIAgIAoKAIJB1CAhByLotlwULAoKAICAICALeCAhB8MZInhAEBIEsQaC2tharVq3CwoULcdxxx6Ffv35ZsnJZpiAQjYAQBDkVgoAgkJUINDY2or6+HjU1NVi/fj2++uorfPPNN9ixY4fC46abbsKIESOyEhtZtCBABIQgyDkQBASBrERg7dq1WLBgARYtWoTt27dHYSAEISuPhSzahoAQhAw4DjV1DSirrMWeylrUNzSgdG8tausbUN/QiIrqOtTVN9hW0dj0//w2uehYkIfc3Bzk5gDdOhYgLzcHHdrlo0v7fLRrm4ecDFi/TFEQCAKBZ599Fh999JHSIuiaEIQgUJc+MwkBIQgtcLd2763B+pK9WFdSgR2l1dhZUY3d5TUoqahWZGBnWTVq6uoVSSBx4P9Va7TIQejfgrxcRQRyc4Fc5KB313YgaeDPunUqQLeObdGrS3sM6d0Zw/p0Qef2bVsgGjIlQSAYBIQgBIOr9Np6EBCC0EL2srKmHovX78aXq3di1dYybC+tUsSgXBEAagjCwj9MAhr5vfpR5M+13zcRh/Dz4feoTejULh89OrfDwJ4dceSIPjh2//7o3rldC0FFpiEIBIeAEITgsJWeWwcCQhDSvI+U3fNX7sDLC9Zj2aZSlFWFCAEdqJwaAev7ZJADRSSarBGNyM3JUeaIgT074eLjRuOY/fupn0kTBForAkIQWuvOyrqShYAQhGQhGWc/9729DC99sR6NjSQF3hqB5JKDZn8FOxmhvwJJwuWTD4xzVfKaINDyERCC0PL3SGaYXgSEIKQJ/7019Zj+r+WYtXBDyEwQDzlwe8/hjxDdv4YcqHeaf37a4cNwzWljxTchTWdEhg0WASEIweIrvWc+AkIQ0rCHdfWNmPnpGvzj4x9QWVOXADmwOSXazAXRpgmnZsKLHIQIS9u8XEz90XD84sQx6NqhIA1IyZCCQHAICEEIDlvpuXUgIAQhDfu4bHMpfj/rW6zYWhZFDgryczG8T2f0ZcRBbg62l1Vh+eZSFa3QfLt3+CfEQw7sjosRmoNI34TCjgW49IQDcMa4ESoCQpog0FoQEILQWnZS1hEUAkIQgkLWpd/n56/DY3NXoayyJvxUSCjTSfC0Q/pj0pgi9OnaXuUsKCmvxherdmDWF2uxdkd52HHRqTnwiGSIMjcY3jeYLMYO64Ubzzoc+xR1SwNaMqQgEIkAMx+2bZt4SK4QBDlZ8SCwdOlSlX3T1EaPHo0VK1agb9++6NGjR9RjlZWV2LhxI7p06YKePXsil3HoLbQJQUjxxlTV1mP6u8sxa8F6NFg390agTW6OIge/mDgC3TsVRCQw4jtvf7UBMz5YhpKyqtCM7ULf7r/gDHtMkByQubTLb4MrpozF2UePQn5eyz3MKd5KGS6FCFRXV2PlypWqRsKQIUMwYcKEhEcXgpAwhFnZwfvvvw8KeTZm4KyqqsLAgQObsDj66KNx991340c/+hGmTJkSRWZJHl599VUcfvjhGD9+PPLz81ssjkIQUrw1JWXVuO/t7zHn2y0250Sgf/f2uHbKaIwf1Vs7o/KqWlz35OdYsm6nMfzRr7Nj1HM+nCQnjR2Ma04/DL0LO6QYMRkumxEoKSnBvHnzVJ2EnTt3qpvb5MmTccYZZyQMixCEhCHMyg54BlUYOqBSdfOM8kxarbS0FL/97W9x4IEHYurUqSgqKmr6XV1dHT7++GO89NJLOOWUUzBp0qSkaMOC2gghCEEha+h3065K3PvWUnyyfFuE/8GhQ3vgtjMOQFE3swD+06xvMHvhunBqZY1ZwalJMEVG+H3OpqnYp6grfvuz8RjRr3uKEZPhsg2BvXv3qqJJX3zxBYqLi6OWzw9WIQjZdipa5no///xzpUU49dRTmybI7//2t78pTdd+++2HI444AjnhnDIsBEYNxOrVqzF27FghCC1zW9M3q6WbSnHvm9+heP3uiJDCsYO74dYzxmBgj47Gyf3x1W/w5qK1zbUX3MwMSSQHNGf079kJd150LEYPjLappQ9NGbk1IsAP3ZkzZ4JEQdeEILTGXc/MNZkIwowZM3DIIYeAGoNjjz0WnTp1UlqH5cuXK60D/Q4KCwuFIGTmtgc366Ub9+DeN5eieMOu5kEaGzGgRwdcd/J+OGqk3sSwu6IGNz41H8Xrd4bei4sc2MIbfZgVmsdpRJcObXH3pRNx0LA+wYEjPQsCAIQgyDHIFATcCMJZZ52Fr7/+WvkiDB48GLW1tXj33XcVMdiyZQvat28vBCFTNjpV8wwRhO9QvGF3k5BndsS2bXJx8tj++MXxI9HTUQuBdRpe/3IN/vHhcuyqqI6MZIjSFOizIzYTCmdRJ5ckTQ5TxANXnIgjRvVLFVQyTpYiIAQhSzc+A5ftRhCmTZumzGTdunXDuHHjsGfPHrzwwgs499xz8cEHHwhByMD9DnzKTQRhfUiDYE+dzCqLE/cvwnlHD8OgXp2Uj0JJeRXeW7wRL322Gpt2VoSdYyz/g1AP9pt+0wIsDYNLjgNTrQeTE+MDVwpBCPyAyACiQZAzkDEIuBGEX/ziF6DD4ocffojzzz9fReDQP4GahZdfflkIQsbscgonGiII3yofhKi6CmhUJZp7dCpQoY4sx7xmexl2h6s6hjxnPciBzwRIsZIDznX6lSeJBiGFZyVbhxINQrbufOat24sgUHvw6KOP4sc//jFee+01RRQGDRokBCHztjo1M7YIwhJqEIzRBCG1P2spRpIIZ+SCZS7Q/Fz5GPhNxeyeOEnNARCCkJojkvWjCEHI+iOQMQB4EYRevXrhyy+/xOzZs9GhQwfcdNNNam2iQciYLU7tREkQ7qEGYR1NDDrB7PQJsMwIiZIDp2+CvzBJixyQbEz/z8miQUjtccnK0YQgZOW2Z+Si6YTI/BwTJ05smj+/f/7555WvQffu3VXujrvuugunnXYaDjroIPXcO++8g3bt2oFJlSRRUkZufTCTVgRhdjGKwz4IEfZ+YwVGv+TAS+ibNA4OUhKOcLCTA6VBEIIQzKGQXiMQEIIgB0IQaBkISKKkFO/D0o27cc9s+iCENQiWmcGNHMSR2Cja0dCNHESHP4ZMG5E/DxGE/ilGTIbLNgSEIGTbjst6WyoCQhBSvDMhglAcaWJIQr0EtQxTbgTX/iNND6HvHP4L4R9N/5UQhBQfl6wcTghCVm67LLoFIiAEIcWbsre6DutKKlBRxfLNpmYX2rpn7Df7yN/f/coCrNla6gh/DEt4O4nQhD+6kQOShum/miIahBSfl2wcTghCNu66rLklIiAEoSXuSgJzuvSBd/Htuh2hHiI0Ck4zQqSDpBc5CBGEk4UgGPZmw4YNYMVBNqZRpXNS165dE9jJxF9lqmI6QLVkJyjdKoUgJL73fnpgkSEm77EKD/EdZvdjCeJklNP2M4dkPMPKiqxxYC/B3KZNG/U3yJLK0uJHQAhC/NipN1myub6hEQ1KK2++2UcM4/Ox5nf8v3Dlw3OwdH1JpJnA4UvgNEV4k4MQ2VAEYd+wD0Ij66H7mRfLQ+cAOW1C/2Zg477W19err82bN2PNmjXqa/369SrxiVX6Vbe0zp07q1KwLNrC4iz80MrLy2sq3pJMODg/5n7ftm0b5s+fr7K4XXTRRRgzZkwyh2nqi7gwfWxDQ4O2fxIlkhOrUI3uIX6oO99nrvoXX3zRiOtJJ50UURxH1y8x5pdbS0Y1R+tscA3W16pVqyKGLSgoUGeAeFBw8csNk2Rvlv3sfvfdd1i2bJk6vxUVFcahGKs/dOhQdW732WcfFaKX6nlbk7P//ZHQsJ4BUxVzHfz7c1tHx44dMWDAAIwePVrVRujRo4c6F9wLad4ICEHwxijqCcpbpjwuKa/Gqq1lWLapFJt27cXW3aEa4c1i05CHoOkhe9SBU9h6RCQ4hX545HXbylBZTfOFv9wITeRAzYnfmSMmpv/qlBBBaKwDdj8M1Gywlay23rMhwP7y+gH5fYH2BwF5RUCbwjBZiAP4FL9CwV9WVoaNGzdi8eLFWLp0qQpp8k0EHfPlrWz//fdXoU3Dhw8HP7wSFRQUsOXl5Wpe/MBcsmQJ7ALqmmuuCYwgbN26FRSy3377rXZnKFzOO+889O3b17hz06dPV9gmszF87OSTT8aUKVMCIQgkAhRKzJK3adMmrFy5EuvWrVNClwTN1Pr3749Ro0Yposj/s4BPkIKKZ2P37t0KX1bH/P777+OCmbfwww8/HAcffLCadzLOrZ+JVFVVKYxJyvm3x/NNYuCGsVu/JDjE/8gjj1SEgRq+IPH3s8aW/owQhBh3iEWTFq7ZiX8v3Yol63Zj8+5wxTmbwI7IeBhRFMkKJ3QIUYtWmKIVojQA1vum/vySg0gHRTdywBFDGoQBQGMtsP1/gGrelDS1HCLSPFvEIxfocDjQ+Xig/QFArrlqZYxbkvTH+eFP7QAFH29cFALxfijpJketAj9sJ0yYoLKqJUISOMf33ntPCSnLxGEfUwiC+XjEqkHgGaCwojmJwoqYkyTF2ihgSRSZn5+CioIrmY2fP7xpM7Xvp59+quZr0vLEMi4FKskNiw9Ru5DseVtzITHnnPm3x/PN/1NTlaxGrRZxZ5VFklgvTVOyxs3EfoQg+Ny1uoZGLF63C+98swkffLsFFVW8KUQKYl3q5OZsiclKgBQrOdBrIpw5DqLJQbTgn34VNQgkCDXAttuBmpXN2SCd4ZpakpAD5PUGukwGukwC2qTXRu/cegpY3r6Z/IQfTFTVB9lGjhyJ4447Docddljcw/zrX//CSy+9ZHxfCELiBIHClcSA56K4uFhpC+z27ng3j5qVY445Rp2BZPqJrF27Fu+//77SHJhKZsc7Z75HUnvEEUcoTRi1IMlq/Pv74YcflBaMOBPzeLV1fubUp08ftYZJkyYlFX8/Y2fKM0IQfOwUycGc4i147rM1WL65FA10OIiFHCScAClMCowlnhNLgOSHHHAGEQRh6/8ANTYNgs48wZ85iQJxyy0Eup8DdD0JyCnwsQPBP8IbF4uqWAVVaLf103iLYvlW2pnZKEzo/OX3xkOb6NSpU9VtMp4mBCEatWSaGOg7QKdJ+nNQ8Oq0NPHsm/UOnQKZp59Z9pJBEqiKf+WVVxSJSYbWwLQ2zvuoo47C5MmT1flPtNF08NFHHymtAYm5l8aOpgGd6YravlgazwpJ2hlnnJFRjpmxrDGRZ4UgeKBHB8SPlm7FI3NWYGPJXuWUqCcHzigBjVAP/yj0vjN7oYuQj/c9jWnCU3PgkjNh+lWnNmsQtv53iCCopWh8F+zEQEdscjsDRTcDHQ5O5Pwm5V2qMJkalTZk2j29GtWT9CHgTap3795RTk/sg6rnRYsWqZuQmxMjx2K+dtrq43EmzHSCwPK3K1asiIDc8qkwCTiqulkEx9To68GbIQWYW/MyMbAaH7UGFLq8ifu5zVLg+DlD9nlR2J544omejpde55LzfOKJJ7BrV6hSrKnR4XDEiBFKzU4CxO/ZSGrpb8P9oAaNpNmtEWeaHEhw+XcQb6MZhGYyEgM3zQwJwYEHHghq3kyRFiRwnP9XX32l/vUiGpwzyf2ZZ56J448/Pt4ltNr3hCB4bO23G/bgjlcWq9wFEZkFw0IvKuOgNrTQ6cCnT20cmoo+SVF8pEJjAlFD2Jwnnd/b/SAca5l+9WmRBIE+CBY50L1n0iConzOmal9g0L1p/eMiObjnnnuU05mbAKAQp+2VN31GItBvwPrSLYB98Yu+DE899ZS60bm1YcOGgQKJ48TSMp0gkAQ4cedt/bnnnjOqx+mAePrpp7vCxL3xckDzIgjUDunmZw3MGz8FLL3jKWwpwKwxSSjoGEitFIWu122eAo8RJ+wnnkYHxBkzZrgKdc53/PjxSmNB9Trn6vR/sc4t5//BBx8owe1GeNjnCSecoDQJJDqxNDoAc59ZzMiED+dHx0hqWOi3YUXFuPntWNE1JAgsisS/Qa9G/C+//HIMGTLE69Gs+r0QBJftpkPifW9/j3cXU23ldOizKi1G/1wv5A0OgU2ahFjJgcY50CIYdqFvJzJuZMCZWllDIiIIwpbbwhoEwzy8yIG17j5XAN2mpuWPjhqD++67zyiIKCD69eunbJQUArwdxtP4AfvII48oL3KT6YIffHSa4m0slnEynSDo8GwpeRB0c+OtmU6Ghx56qCKMgwcPdj0SvJWzMA8FrZcmiYV8SBJiid2nMKS26rHHHlMaMF3jOeYNnwSUWq9YmqVdo0Om6TbOs3v22WcrVb3f/AkU3tTakTjriDkdBzlnkg/6O/jt17k25kcgCaEmz81sSIxI/i+44ILAnC9jwb2lPCsEwWUn6JD4x9eKUVNns0drNQeOaALjDd2hjvckB84wScP3Wt+E0JzMYYxhQmKRCrs5wjD/KIJQrXFStEiI1knR7pMQHj+/CBj6MJAbn/BN5A9p5syZmDt3rlFzwNCuc845Jyk2Vt7IqP6l45jptkTtwU9/+lNlavAb2SAEIf4T4KVBsPdMIchbJqNPeAN3M3HoZkSnwTfffFOFpJoabfk/+clPlED0u/80A8yaNUvlvdAJcGoJaAbguYp1ztY8mWuAY9DcYjIBkNT8/Oc/xwEHHOBrQ6ideP311405DEjIaXZLhn8DQz2ffPJJRRLcGrV4JGjUWEgLISAEwXASKqrrcOVjn2PFFqYttqvlnZqDRMmBJsrAPp5TWNt9FzzCH5NHDkI9hQjCwFAUw+ZbYwxz1JADyywx4Hag89Ep/5v8xz/+ocLATKaFm2++WSWJSVbjbYkkgbcyU+MtjPZQhkL6aUIQ/KCkf8YPQaCgppCikGW0CYVIvGFxJAhvvPGG602W5IMOc9RSeDUSgs8++0w5JZqIB8/vxRdf7JqLwmsc/p5mEqrr6URouonTN+DKK6/0FdngRRA4Z/qR+CVKXmtgRMQDDzygMi6aGk2HvBBQOyRNCILrGZi3bBt+/czCaHJgd8hLgQYgPAHbPEw5DhSraHJ+NJODOEwd4VemX+MkCHYNgmNedt8ErROjTZtCcjDwtyn/m0w1QaC6mZ7ar776qutNjKrgfffd19eHoxCE+I+NH4LAxDoMQ+S/iYb08bbPM+d2k6XJgrdYP6YAev6zP2fmRgsRRsj8x3/8hyI3ieYsoNaL4YfEjFE6pnbKKacoguPVUk0QOB/+7T399NPGqdFZkSY+mjWkCUFwPQM3Pr0QnyzfFuGYaE6AFIPjXwwaAP/kINL00BSpoDiDJsLA+XM3ohO+5Rd2ao+7Lp+Cg4YXhTQIm35j0yDYozJsY9ojHJxOjNb3nF/bAcDQe4C87in9u0w1QeDiqEV45plnsHr1auNaeYukqtkKnXQDRQhC/EfGiyBMnDgR/KLpx8vh0c8sKGQZRvv4448b7fl09KOzHB3y3Bq1B3SA5K1ed6PnfC2fFj/aCD/zp3mB2goKWpM/Ase65ZZbPDUW6SAIJGh33nmnyi6pa9RWkOCQJEgTgmA8A5U1dTj5zx+gqsZKm0qPdOuGHv7X6O3vfM52Y08qOdBHRvgiB85ICR9rGdCrK+689ESMHtQ7RBA2XAfUbnBEMfgkBxZBsUwkTJjU71qgy/iU/l2mgyDwQ5b2XDqtmRpvqnfccYcvM4MQhPiPjBdBuOGGG5QmJ5mNqvp//vOfxls/hRQ1CHSYc7v1M+rm97//vapFoGv0lzj33HOV9iCZjeNRyLolYKLG5fzzz3cdNh0EgSGQxJ5OsKbmVwOSTExbcl/ig6DZnQWrd+C6JxeoIkxhjwNHZUQbCYi4obuQA234o5NseKVitmkKmoaymxUM5gOT06TfcEcAY4b2xW0XHIehRd2BhkpgzU+jQxybtALWunxGODBZUo+zgL6XpvRvJR0EgQu0ihG5xavTBsuQNK8mBMELIfPvvQjCTTfdpPIFJLMxtI8mpo8//tjYLVX0VHO7ee4zNPD//u//jH0wIuLSSy+NOfTQz1r5d/PJJ58YH2X0AbFzq2aaDoJATQu1H9x3IQh+dlqcFLUozfxkNR781/cqKVJI5rlFDzhv8jbhaPXuixw4Ixyc4/okB25C376WqOcsxqFJ4ATg9KP2w39O/RG6dW4PVH4NbLo9tDpnHgS76UCnmdCFP/JnnccBg/8XyHGvwOfvWPt7Kl0EgWYG3mRMYWmcPSMZmCbZqwlB8EKoZREEzmbOnDlggihTNIsfgnD//fcbfRlomiLBCEpVzpDHu+++2zh/Jl7iGqhJMLV0EATiTXLOfBFCEPz93YgGQYPTTTMX4uOlWwIkBxpSEeH86EUODD4HfjUCMZKD9gX5+NUZ43Dm+P2R1yYX2PEIsOet5JED7kGH/YABNwMFA/yd3CQ8lS6CwHh4fki5VTGkLfeuu+7yjP8WghD/QUiHBoGzZeQBcwCYyhR7EQRqIWjnN4Uc8uZ+4YUXglqEoNptt91mrFVi5RT42c9+Zoz4SAdBIBbMv8C/KyEI/k6GEAQHTpW19Zj2yDz8sK2sOTeSVvBqogliinAw3dh9hk3a8zHYNQNRKZx9JlTSpX4OYzNmWF/ceM4E7DuoF9CwF1h3OVBHRx9b3/FqDqw+CvoD/a4GOh/h7+Qm4al0EQROnTkYqGZ2SwXLD2GvzG5CEOI/COkiCHRUZPIek7OcF0FgpslHH33UuHBmSbzxxhuTkkPANAijAaiuNzWaZqZNm6ZyR+iaEIT4z20q3xSC4ED7h23luOHpL7Bpp7OMsy4Fchwhg/EKc4e6PjSynaTEaOpwnUczKF07tsMlkw/F2RMOQEF+HlD6DrDtwWizi9HUEJ6nMXFS+Pd53YC+lwHdJ6fs/KeTINBJcfbs2a7OXszqRk90tyYEIf7jkqkEwcsHgKWYqWFIRuSFCV1qQRiNYWpFRUXKUdHk5CkEIf5zm8o3hSA40P5o6Rbc9doSlJRX2bIr6wSxFzlwahgc37slQDIK72RnR9SRimZA2uTm4rixw3DDuRPQnb4HtRuBzb8Dqq1EP2ENgokcWOvwIgdqGrlAnwuAvj9P2flPJ0HgLZBq5tLScCIuzaqZyfGyyy4TguBAIFme5plKEG6//XZVClnXGAXBTIzMpRFk27lzJ5hIzNSYWZHpl00Fs4QgBLk7yetbCIIDy5c/X4tH3l+Ksr214d+4kQNT0aV4yQGVAg22Gdn7j5UchG/mzhwHTeTDnRzwscNGDcCfL5uCTu3bhkIbdzwK7HkPaKxzaBAMpgY70YkgCbrnWdbwJ0C/K1LmqJhOgsCkMyziZFIzEzqqaekN7tZEgxD/h2GmEoRrr73W6L9AgsDcDUytHGRj5sbrrrvOOAT9EFhgiWRO14QgBLk7yetbCIIDy7/PWYZn561CZQ3rLzSHEDpLPGu/95FPIKrMs68IBxM5CJMAj5TLoSU6iE6TAsSmCWHu7ZwcdCjIx5GjB+L2i44HHRQVOSh9D9j5bMj3wDlnXXhjFDmw+VY0aRwcJKXweKD/VUB+ahImpZMgsG79gw8+aHT0InxMmsP0sEIQIhHIZg0CCzMxD4GpwiLNCqxhwGRbQTY62jKSwa1SIis8nnXWWdqMoEIQgtyd5PUtBMGB5V/eWILXFqxFbT1v8nE6+JnCIt36Mwr5UERDdAKkRMlBJDFo0yYX3Tu1x6A+hZh8+EicMm5f0MSAhiqg/ENg5wtALTNLhgEzCXlXc4I9LNJBDvhe4QSg/9VA2z7JO+EuPWUCQfjLX/7iGskgGoT4j0omahAYIkvBnAkEgbUUmBFUl6JaCEL85zaVbwpBcKB967Nf4oPicHlnk0bAfjt2Ffq2m7svchASmt06tUPPLu3RNi83LJBt9MAYymjXEujGdWoRQgvv3a0T2uTmoHdhJ4wa2BOHjOiPXoUdQ6yfEQvUHOx+Dajd6o8c2ImOzjfBHulhJxP8f6cDgYHXAu2Tm5zG9AfV0gkC49lvvfVWVXLa1IQgxP9xKQQhfuz8aBBYDpu1IHTlq4UgxI99Kt8UguAkCDMXNBOEJplqzzvgdE60HnKGJzoFsuG9sJDsUJCH0QN74MChvTC8qBt6demAfBIEY7OPp3soUkNg6oZkgJqCrh0KQC1CU6ssBso+BMo/A+r3NBEVZV7QESddAiSLFPl1Yuw4Bhh0XVYQhG3btinzAVXGpkaCQB8Et8I9QhDi/7gUghA/dkIQ4scuk94UgqAlCBtDP7ULwoj6BV6JjPyTA97UDxneG6cduQ/2G9QTvbp2QLu2echJxymi8x0kP2sAACAASURBVGH1SqB8LrD3G6BmU9ghMbyeWMiBp1OiJqpDaRCuAzq0fg0CKzv+4Q9/cC39LAQhHGrs+FvIZh+ETDIxiAYhHR/iyR1TCEIUQfgipEEwkgNTvQRNVEBE4qRoUkFnwAsn7o+zjx6pHANVlkJ7q2MxpEr3HY9SFDh+EPGtRqvAOdZtBarXAJVfAbXbgYYKoIGFquzRBjFoDjzJgY1wqP+G56U0CNdnBUFgHYZ7770XLNkrGoRIBFhMh4mkTAWBhCBkhg+CEITkCut09CYEwYH6bc8uwJzFVpy/JcgsjUAM5EBbMbFZs9ClfVvcedExOGJkUXgGDUBjFVCzBKiaA9QsA8CfxXF791Ltax0J3eoqGMpG68wKnhEOBnJg+SBkCUHwE8UgGgTRIDiFAqMGmCo4E5wUTzzxRBXFoKtKKT4I6RD3sY8pBMGB2YNvF+OFz1ajujYc5tikSfAiB/bbuSProi2kkKaDvt064urTDsWEAwaEtAaNFUDN10Dlu0DdOqDRMbZdte+0/zuFfSrJgXX7187BkOvA5KTIvjpRg3BDVmgQ/BKE3/zmN+jfv7/xL1t8EGL/0LPeyEQfBOYfoOMqfQB0jSZL5h/gV5CN4//xj390Tdh08sknq6JNuiYEIcjdSV7fQhAcWD45dxmenLsce6trbWYGTYVDnaBrUpfbnRqtAUKkoU9hR/xy8kE44eAhKMhvAzSUAJVzQloDllFWzaDa9yIHnqp9jd3fPueofAYumoN4yIFdq6LTYnQ5Ahh8HdBucPJOuEtP6Yxi2LBhAx566CFs377dOMN27drhz3/+M1gdz9SEIMR/VDKRIHC1v/71r40JtkgQjjzySFXqOcjGQlOcB31pdI2lqk8//XScdNJJQhCC3IiA+xaC4AB49sK1mP7WEuypqNEnStIJ1CYOQAnrJAfNQpnOh2eMG4FLTzgQnTu0BRrKgIqZQPUXQKMtc6POrOCHHOjyL8RionAWX3JGH5hIgadZQee/YE/THCYiPU4EBv1XViRK+u6770CCQl8EU5NESWJi0J0NmhhYldDUWP/ghhtuCFR07NixA9RumVq3bt1UiCPTheuaaBAC3Z6kdS4EwQHlotU78L/PL8C2PfxwckmUFOXEqKRnqDenwAyPMbyoEP/7s/EY0a8bgFqg/Gmg6uNQpEDoxXDyxjDRcN7o3QS0iRyYhLypL+uWH6VN0GkfdNkRbetw9uUkV06NR59zgIFXAbltk3bA3TpKpwZh/vz5eOGFF8DSvabGojtUJ7s10SDEf1QyVYPw0ksvgftuan379lXhsZ07d44fHI83ly5dqpxsTW3AgAFgued99tlHCEJguxB8x0IQHBhvKKnAtY/Pw4YSq9yzTujbyIDPBEht89rgvGNH47IpB6vERKieB5TPBBrKAyIHtnnbtQjWeo15C/zWVfCROtk+hhc5yGkL9J8G9Lsk+FMfHiGdBOGtt97C22+/bXQ24xTHjx+Piy++WAiCA4FsjmIgFIsWLcLDDz9sPBfdu3dXRb6GDx8e2N/SG2+8gddff93Y/+jRo1XBKF2SJL4kGoTAtiapHQtBcMBJmXbBX9/Dqi17DBoBn+TALhABFHYowN//azIG9eoaCiMsmw7UfGcjB34FukMwazUHcfYV4SMQXqc24sGNRNjea5qbI0JC5yvRtjcw+L+A7scn9YC7dZZOgsCxWTK3ocFenCtytryBeeXUFw1C/MclUzUIPDOXX365ceEdO3ZUzoFeZyd+5IBHH30UrEiqa4xaYJrlCy+80DiEEIRE0E/du0IQNFj/6ZVFeO2LVSFLgU4Aq3f81GmwBDVw8PDeePiqyaHRqj8HKp4F6neG+w9IoEdpDjxMGE2COwZyYIpKMEVXmEwYHUYCQ38DdNovZac/XQSBfgdPPPEEqKY1NTqb3XHHHaC62K15EQRW9Tv22GORl5eXdFyZBZJC9ttvv9X2vd9++6nCQV5rcL4seRDOwAknnOBag4MaBGoS3AQ0CSaLNyW7kaCw1LOpEikJCks9H3PMMUIQkg1+ivsTgqAB/NX5q3D3rK9st7t4yjpHmiauPOUQXDxpDIB6oPw5oJJlk62KkWEi4hToiUQlxE0ONL4Gifo3eEZl5ACF44F97gDamD32k/23kS6C8P333yvBylBHU+vVq5fKtOjVvAjC1KlTwXh0epUnuwlBiA/RhQsX4rnnnjMKWN7+vQgCSdSMGTOME2CpcJqn+vRJfuEzZnP83e9+ZxybtUPoJGkyL/BF0SDEd3ZS/ZYQBA3iyzftxs8feA/1lvrXr0OiunjbIhlsKvY/XfJj/PigwUDDbqD8n0AV1XOx2vsd4Y9N49k0HUbfArdESC7hj7GSAxPJMTo/AsgtAIp+Bgw0q02D+MNIB0Gor6/Hhx9+qOy3plh2rtWvnZ0ftHRaM4WbjRs3DtQiuIVKxoutEIT4kEsGQeDtnXkIdu7cqZ0EhTMrKXL/k91efPFFvPvuu8ZuJ06cqDRHbk0IQrJ3JZj+hCBocK2qqcd597yNzbsqbCYGJY01Jofwz+3kIIJQ8JVGzLj2ZIwZ0htg+uTyp0L+B/YESE5hH6tgtt5PVtKimJwYHdj49lsIk5a2PYERfwC6jA3mlBt6TQdB4Ac6oxcoJEyN+Q+owqUnuFfjTfL55583RkNQE8F4dYadJbsJQYgP0WQQBBLCd955x+goSBMVVfxnnnmmttxyfDOHCstlCXIWG9M1Zv+85ZZbPM+uEIR4dyC17wlBMOD9+xe/wBtfrG7+rV0z0HTzN5GG5lwIIVlJgnBKiCDUrgbKngJqVwRXFdEzL0GKEyCZNCUWkep8ILDfQyFNQgpbqgkCieLXX3+Np59+GqWlpcaVHnbYYUo9TKLg1b755hulrmZcuq7RBn3JJZcEcpNMF0Gg4Lvooou8oPH8faY6KVoL++GHH5SzoCnZVs+ePXH++efjgAMOCJVvT0Jj5A0jGEwaK0be0DnRy/dBCEISNiMFXQhBMIC8ZG0Jfvm390K/TZAcsItIgvAkULNS7+hocu5z5jPwkzhJK5gdpEZ3249FC+GVHdGPJmTYzUDfn6TguEcOkWqCQO3B448/juXLlyutkq7l5+erELWDDjrI14c6c/M/88wzWLVqlRE/OgkynwITLyWzBUUQ1q5dq0phm0hUshIBZTpBqK6uVqGyb775pnZbrayKTFjk5g/g90yQiPz973/HmjVrtK9wjDvvvNPXOROC4Bf19D4nBMEF/zP/8AY277TlKYgxcVKjLXHSjOtOtWkQSBA0GgStat4m0KOSF/kQ9r79HCxHSUPeBxNBMc3ZbqJwy9CYkwsc+SGQmzrnRGvLvQjChAkTlIqWXtmJ3sDoezB79mz15dYYHsYCN34/0Ovq6vDUU0+pkEm3dtRRR6lbt65wTqwfQSQ3LBb0ySefqIQ9Jm/2eKMYqA1himlTvyQ6999/f8J7kukEgftGh0FqkNwyK06bNk2lX/a61budA5IRmrK457rQXPbNqAn+zfhpQhD8oJT+Z4QguOzBa5+vwl0vLwg5K9pvwk1aBUtAh/9VfYUcCe3kgD+NIAilYYLgzLyYErt/DGWbvTI7ukVd+NWE9L8EGHxVWv4SvAgCSQG9wFl0ZtSoUejatWtcApZli2kKoPbArdFfwFIJxwIIbdr88HZL22zZpFnEh+QjHmFBYsBiQRRKtH8zGsOtxUsQ2CcJwsqV1LLp2y9/+UscccQRscAU9WxrIAhc1Lx58zBr1izs2cPcLdGNESzXXnsthg0bFvf5pWMtyaDOsZak0yrtTDLtpwlB8INS+p8RguCyBzvLqnDrP+fh61Vbw0/5y6roJAfKB+G605o1CKX/CGkQ7ERDRw6Mt3aLiMQafZAMctCc26HZaVOXvMlR/dJOJqz/5/cCxj4L5Bem5S/BiyBYk6Lan1np6BvA9MdU2fsJG+TtfuPGjSqhjJvXN8fhrZihbfzy43tgB4y3eWoRSBTcEi8xFwLt0bzlDR48WKXi9aMZob25pKRErWXx4sVqHN4ovVoiBGHOnDnqZmxqI0eOBG/GPXr08JqG8fethSCwcBIzc86dOxc1NawhE92YXZHhkzRdxRLRwn1fsGCBCkvUEVCeHxIPRsrwTPk5T5ydEIS4j21KXxSC4AI3NQf/Lt6Ae179EjtKw4VjIsIYw4I6JOkj7coOjUNIg9An5KRoEYS4SEEMDoZO/wDXlMvO1MkcJ5zlz1d+BruJQkMOnH3l5AGDrwH6nZ/SA28fzC9BsN7hTYkfgiQLLMHcu3dv0BGMN3JLdc8PaH6Q0j7PmzYFKm3qXoKb5IPJZQoL4yNLHOuxxx5zza3AdVBzwDkzRz5j5YuKilSEA9dgT6bENbBOBNfBypNcA53iqA3x2xIhCByfuf63bNmiHY6kjZgxpG7QoEFxaURaC0EgQMTrtddeUyYAU+PtnqYmkkQKdTciSjMP95vJmFhYTLfvJAOMtGHVRvYZSzIuIQh+/4rS+5wQBA/89+ytxtMffoeXP1mGvVWsuOi4QTvJQYTzWXNY5IzrqUEIE4Q9T4R9EMI5E5qCHqzvdbd0q7ik4xnFTaxxfNZHsN5p+teRjyGCBLloKXxVf7QTDVtfPSYCdE5kiGOaWqwEwT7NTp06KWFOwcrbv0UQeNvmjY72czolUovg1caOHavIQawZB539MqPhk08+6WpqsL9DDQLJAQUHb5V2/wSaEqhO5jqounYjOKb1JUIQ2CfJ1SOPPGL0mCdJYFIeCic6LvL/fn032H9rIggWSaCPy7///W/jkaMQpymLpIrkkCTXbm4iKdy8ebP6IjlzM1vxfeZaYN0F7kUsTQhCLGil71khCB7YU6SVlFbisXcX460Fq1BdWxeZG6GRBgWn6UFJ3gi/hRnXnx5JEKqX26IY7EmMTORAkyQpER+BeMmBNipBk/Apgrg4Ejl1ZFrlX4fyHtBJMU3NiyAMHDgQjBIIso0ZM0aFhSUjTwGFOCMkGNVgunkHuRZn34kSBDp20tRA+7oprI5jMvaeJIc3Ygoq+o3QJk5s3VprIwhcKwU8zVnEzQ0zkgKayfhlNwuQ0NJ85EVs+bfB6AiaeuJxfBWCkMq/xPjHEoLgE7uKqhq88ulyzHjna1TXMkVySOiZyUGYJISF+IwbbARh9+NAzfLmPAhR0QmaW3uUecCrroKDpNidBk2hh8byzI4IB1+aAxtBso/NWgtDbwS68MM7feSA6HgRhOuvv1594DLrIVXtyW6TJk1SURJ+/Bn8jk1HQt7+Zs6ciWXLlvl9LebnqD1hPgIrYY+ug0QJAvuksOKNmLH3bpkn7eNTozNlyhT1lW0EgeulmYt+A6+88oprvo2YNz38AnMd0JmW2gi/PgfOsYQgxIt+at8TghAj3t+vL8ET7y3G4h+2ghkX6+rrUV/fEE7L7DQ/NN+sZ9wwNaxBWAXsfgKI0CB4pFA2kQO39MVe+Qm8kheFCZBFhJqiOJzkwi38MadNiATk5IfCGHtOBIrOA9p5ZwiMcVvietyLIDAjHP0NSBJo2/3000+V2YAfwKY8Bm4T4Ycpb7hUzU6ePFk5jMWqmvW7UM75vffew/z585WQ4G083kZBwHnyi9EchxxyiLqd8+bOMZgZUtf2339/lXI30XoAnHtxcbFyxGP9CpIGN/ypSWDkSbYSBGsvSBRJbkkU6UMQ7xmgtoF7Tb8bpgAn8YsnCsZ+RoQgxPvXmNr3hCDEgTc/nDbuKMOiVVuwYXsptuyqwO7ySjREZVhUUlaNcMNPjsLQvt2A2lXALo0Gwcvu71e1XzAyVPDIlDOhaUoG3wI7MYjK+9C8nmjCoKl8yRLOeV2BDsOALocB7frFgXZwr/glCNYMaIv/6quvVPVCJo2hnZ7+Bl7qWH640jZOj3sK1oMPPljZgVPR6LzIGzj/pT8BBYVbBIKldqaQ5U2cqnsSGkZvUJ1Mb3j7rdGNIDD2njbqeB0vnfhQg8AICmajpBMdv+d6SNjsPhJ+CQLD9twiP5g3grb6ZDdW8aQZgCRO11immdglgzzybDKxESNpeAZIFnlmGfni5lfCvedZYGgv/RQOPfRQ5WvgN4zRCzNqOHguTVqhU0891XeyMK+x7L8nBoz4MTVqR4Iskx3LXFvCs0IQUr0LNdQgPB6pQUgWOaDMH3w/0H5kqleVkePFShDsi+SHLm+zND0wFIxCioSBH8i8XfEDlsSAzn8kBox+oLCJxYkumaBS88G8AiQ2JDqWYOUYnK81Lzou8v8U6ox2ICEwZWCkecFKvaubK8tMM7SODp3JbByXt2OuhTUBKGjtJI2ClbdcajDcGt9zM1vQLyQZQto5BxI0jm0S0JbTaLzqe9OaSQ4YjWI5H5IwOskttUXcb5ICnoMhQ4YoMhtLhIKfveb5I1ExaYI4dqzhvn7G5dlxc7wk9skiQX7m09KfEYKQ6h1SBOGxEEFQAQn2SAbbrd4tQ6FbCmVFEEalelUZOV4iBMG+YEvYkiDwA4gCl8TAcp6Lx4kraED54Ww5sVEQ8aYYa2MfDK1jEp1UEoRY5ynP6xGwCK39txZBaIlnVvYx9QgIQUg15iQIu0gQlsXmpMh5+kmc1PV4oA0r9zmjIewLbYqrbHqsySTR9Jg9l0F47F5TgXYDU41YYOMliyAENsEW3rEXQTj++ONVjHwsiXla+JJleoJAViEgBCHV260Iwgygyh7m6OGk6EUO7CYK5IVWZPJB8KuZsMa0O0iOvCfkS9BKmhCExDbSiyCwpgSdMZOtKk9s1vK2ICAI+EVACIJfpJL1HAnCzhkGDYJLUqIIJ0WbdiBh/wVd3gVDVsVRDwBdE8t/nywYk9GPEITEUPQiCHRQPOmkkxIbRN4WBASBtCEgBCHV0CuC8ChQFY5Rd01jrMs/oBHo9uyNTRoCFpgKL85JLqLGDKscIkwY9uRG4b72FYKQ6uPSksej4+OLL76IL7/8MmqadEw855xzMG7cuJa8BJmbICAIuCAgBCHVx6NmJVDyaLOTYlMuA0uaO7IORpgEdAmUdO/FQg7sfTozIobTJFuEYt/pokFI9XlpweMxkoBZG3UJmRi5ce6556qQTmmCgCCQmQgIQUj1vlWvdGgQ7CmZfZIDk9ZBKQIscuBWl0ETLREVGeHoi30LQUj1aWnR4zFk7oknnlBVHp2NIZ1MksSiUNIEAUEgMxEQgpDqfSNBUBoERjFE1muIMAm4ZShUREDnr6CpiWAPpbS/x1LLXcYBnQ4EGuuBqvXAro+Ayh/MoZej/yYahFSflxY8HhP+PPTQQyrpjrMxqc4FF1yg4umlCQKCQGYiIAQh1fumCMLfQz4IppoI8ZADr77s5KBgMNDvshA5YKZDMpP6SmDvMmD9g0B5cXQUBN8fTRPDkalGLLDxxEkxfmiZQ4EFgV5++WVtJyyWdPHFFyc9wU78M5Y3BQFBIFYEhCDEiliiz5Mg7CBB+D7ck6HUsp8CTpbQ9yIHVl98Pqcd0O9SoNdZoRoJEa0R2DkHWHMfULujmSRY4+xHDYIQhESPQGt4n5kAH3vsMZV22tn8pjpuDTjIGgSB1oyAEIRU724EQfBJDpxEwE9lRlOGxo4HAIOuB9qP0K+8oRpYeiVQxg9+2/zyCoFRfwG6HJRqxAIbTzQI8UO7YsUK/PWvf1Uppp2NqXkvueQSVbtBmiAgCGQuAkIQUr13NRtCGoS9X0VqEExmhXjIganKI/ui38GgGwEWUjK1H/4IbH095Jtg9dV+MDDy90DHfVONWGDjCUGID1rWcpg+fbrK6+9sTIrEOgiXX365sYZDfKPKW4KAIJBqBIQgpBrxhgpg+6NA2ZzmG3oyyYFXX50PAwbdYE6ZTFKw/BZg578BMCIi7AzZeSywz38D7YekGrHAxhOCEDu0rKI4e/ZsVf5a11gB8NJLL1UloaUJAoJAZiMgBCEd+7f7NaBkJkCyEIRDYpMJQqkfIiMe2vYFBl0LFB6jX3n598CKW4HK9ZHvFp0LDLoCyOuSDsQCGVMIQmywslQuSySzVK+pCh/LAk+bNk2VCpYmCAgCmY2AEIR07F/NWmDLvUDVSocAtwl0bXZEXVhk2E+giWh4pE5GLtB1PDDoKqCgf+Tq68qAdX8Dts0G6ItgzaGgDzDkeqDHRCAnNx2IBTKmEAR/sLJa5aJFi5TWgGWunSWCrV769euHq6++WpWJliYICAKZj4AQhHTsIZMZ7Z4FlDwD1O8NzcCe/MiLHHimTtZlR7TlTmBBp85jgN5nA90nAo11QMX3wKaZwK6PQyGPTWPkAr1PBoZcB+QXpgOtwMYUguAObUNDA5YsWYL3339f+Rsw34FJc8DMiVdccQWGDGk9JqjADp50LAhkCAJCENK1UY1VwMY/ARVfhLIfKpLgMAdYc9P+PPxsPFkVIwo82bUWtv9b8+k4AhjxP0CnA9KFVGDjCkGwjl2jEvzW14YNG5QZgTUWWG/BrdEpkeSAfgfDhw+Xyo2BnVbpWBBIPQJCEFKPefOIJAmb7gIqFkXe2p0aBG0RJU26ZGfdBl3JZxM5cBIU5AAdhgH73AZ0bj2hjfbtzkaCQK1AZWWl0gYw2RHNBatXrwadD0kMaEJgjgM/raCgACNGjMApp5yCYcOGITe39Zif/KxfnhEEWjsCQhDSvcMNe4GS54E9c4GareHQQmcqZU1dBZPGwej0qNEOWH04+2rTGegyFhg4Deh8YLoRCmz8bCQIpaWl+Pjjj/H1119j165d4Pcms4Eb8P3798fYsWMxYcIEdO/ePbA9ko4FAUEgfQgIQUgf9s0jN1QB5V8CpXOBsi+B+nJL9xuZrCjm0tAWKbAIh65+g820kdsW6DAS6HlC6IvOia24ZSNBoMPhq6++irlz58a8s23atEFRUZHSGjBagYWY+DNpgoAg0DoREILQYva1EajdBlQsAcoXAnvmhcMgbULemQDJpAFwpl72CqVkymVqCrofC3Q5GOgwHCBZaOVt3rx5+Oijj5RaXdduueUWZVdvTY3aAtZQmDVrFqqrq30tjaYEmhDGjBmDoUOHYuDAgeDPpAkCgkDrRkAIQkvbXyYqqi8FakuAsvlA6eehIkqNNWEnxjBhSAY5IBEoHAcUHgkwU2J+DyA3ez74aYenin3Lli3KKY91Bez299ZIEHhsFi9ejOeeew7bt283nn4SAJIBaguYMpnpk7t06YL8fGf9jpb2ByTzEQQEgWQhIAQhWUgG0Q/DD0kY6nYB5d8ApQuAvcVA1SYrLlIf+aB1VgSQ3xPoNAYo/FGIFDBsMScv9EWnxCxtvFXTWa+iogLFxcVK/c6kQDfffHOr0yBwi0mInnrqKbCeAhudC0kAaD6gbwG1JtQYkAzQhMDfM1pBmiAgCGQXAkIQMnG/6aNQuRKo3gTUlQJVa4HaPbaVNIbKOLftB+R1BtoPDSVFatsrE1ebljlTiLIqYWFh68r9QDBJhqg9qK+vV4RAhH9ajpgMKgi0eASEILT4LZIJCgKCgCAgCAgCqUdACELqMZcRBQFBQBAQBASBFo+AEIQWv0XNORHCQYqBzFhZmMXOHAi20qkgIAgIApmIgBCElrBrTHPrNQ8/z3j14fJ7L4Lg9fsEhpZXBQFBQBAQBFogAkIQUr0pJkHvQQDiyXYXy9K8CIDJkU0c3GJBWZ4VBAQBQSBzEBCCEPBeaQW7gQzonjURg0QJg5tg1/1O+zONWcKLaAQMt3QvCAgCgoAgkCQEhCAkCciIbpwEQEMI7ALeDzHw84zfpfjVBjifs3/vJAImYiAaBr+7Is8JAoKAINCyEBCCkKz9SIAURJEFl75i0Ug4l6YT4q4kwOa0aD0XQRI0v7fGjCIQ4gCZrJMm/QgCgoAgkBIEhCAkCLNTYJu+N2kM1M/thMD2f+sdP33Gsgw/Qt6NELj+zmF28KtpiGX+8qwgIAgIAoJA8AgIQYgH4xhMBk4hb/reThKMz4TnaiIOsSzFDwEIyfpQil0nqYj1fWcfuu9jmb88KwgIAoKAIBAsAkIQYsXXzZTgcvt3ahD8EAe/78S6BKdw90MCmp6xaQj4M693deTCPl/xUYh19+R5QUAQEARSg4AQhBhxNpoUfJADN1Jg/52OGLhpFRoaGiJWYT1rikbQEQT7z9y0BV7vWhOxkwchCTEeMnlcEBAEBIEWgIAQhFg2wafzoKt2INyHjhDwZ35+zilbz5qIhXNZztu+7vZv/Uwn3KPeD2sSvLQRWs2DTQvhJA+xbIc8KwgIAoKAIBAcAkIQYsDWzSFR5xfgFPiWYHf+64cUeJEH3ViW8NWRA/6OZXztAtr0nN+fO/syaQ7EcTGGQyePCgKCgCCQJgSEIMQIfARJ0JgVTCTAjRzEYlKwzAk6LYWTwFhL05kP7GaEWIiCnXS4EYIozYJNa+A0fYgfQoyHUB4XBAQBQSAFCAhBiBVkh5lBRxicAt+NNDB6oYGhjmGzgUm7YP3cpKmwv6dbklfUgc7vwCtywc0fQUce1M9sRMGpYYh1K+R5QUAQEAQEgeAQEIIQJ7Y6EmB15UeIJxLFoCMTfpfhFPrWeyafhJi0BF6JlYQc+N0meU4QEAQEgbQjIAQhkS0wJDhy3ub9aBR0eRCcWgP7VHUkxO9SdNoELVHQCHQdwXAjHTqtgWgO/O6UPCcICAKCQPoQEIKQKPYxJE0y3fzdCIRTK+EkH7rvvZZkIggRgt5GDtzME05hb+rDTkC85ie/FwQEAUFAEEg/AkIQkrgHblEOapgENA46ohA19bAvg3ZJLrUQTBoAu/B3cyyM+p1T8+D4PomQS1eCgCAgCAgCASEgBCEgYKMiCjw0DW6aAFN0QjzaA+eN37l8XUSBryJPQgoCOknSrSAgCAgC6UFACEIqcNeQgwhtgm0ObmTA9E6iSzCValYy33D7N4UmSshiorsh7wsCgoAg0DIQEILQMvahKYOiN9gj0AAAAiZJREFUcTo6kpHEubuRBGsYEf5JBFy6EgQEAUGghSMgBKGFb1DT9AIkCKF6japkY6agIfMUBAQBQUAQCBgBIQgBAyzdCwKCgCAgCAgCmYiAEIRM3DWZsyAgCAgCgoAgEDACQhACBli6FwQEAUFAEBAEMhEBIQiZuGsyZ0FAEBAEBAFBIGAEhCAEDLB0LwgIAoKAICAIZCICQhAycddkzoKAICAICAKCQMAICEEIGGDpXhAQBAQBQUAQyEQEhCBk4q7JnAUBQUAQEAQEgYAREIIQMMDSvSAgCAgCgoAgkIkICEHIxF2TOQsCgoAgIAgIAgEjIAQhYICle0FAEBAEBAFBIBMREIKQibsmcxYEBAFBQBAQBAJGQAhCwABL94KAICAICAKCQCYiIAQhE3dN5iwICAKCgCAgCASMgBCEgAGW7gUBQUAQEAQEgUxEQAhCJu6azFkQEAQEAUFAEAgYASEIAQMs3QsCgoAgIAgIApmIgBCETNw1mbMgIAgIAoKAIBAwAkIQAgZYuhcEBAFBQBAQBDIRASEImbhrMmdBQBAQBAQBQSBgBIQgBAywdC8ICAKCgCAgCGQiAkIQMnHXZM6CgCAgCAgCgkDACAhBCBhg6V4QEAQEAUFAEMhEBIQgZOKuyZwFAUFAEBAEBIGAERCCEDDA0r0gIAgIAoKAIJCJCAhByMRdkzkLAoKAICAICAIBIyAEIWCApXtBQBAQBAQBQSATEfh/FGjHG5Uk+MIAAAAASUVORK5CYII=;" parent="8" vertex="1">
                    <mxGeometry x="290" y="380" width="118.18" height="40" as="geometry"/>
                </mxCell>
                <mxCell id="11" value="" style="verticalLabelPosition=bottom;html=1;verticalAlign=top;align=center;strokeColor=none;fillColor=#00BEF2;shape=mxgraph.azure.user;dashed=1;" parent="8" vertex="1">
                    <mxGeometry x="367" y="120" width="47.5" height="50" as="geometry"/>
                </mxCell>
                <mxCell id="12" value="" style="aspect=fixed;html=1;points=[];align=center;image;fontSize=12;image=img/lib/mscae/Docker.svg;" vertex="1" parent="8">
                    <mxGeometry x="283" y="328" width="39.02" height="32" as="geometry"/>
                </mxCell>
            </root>
        </mxGraphModel>
    </diagram>
</mxfile>